<svg height="200px" width="200px" version="1.1" id="Layer_1" xmlns="http://www.w3.org/2000/svg" xmlns:xlink="http://www.w3.org/1999/xlink" viewBox="0 0 489.6 489.6" xml:space="preserve" fill="#000000"><g id="SVGRepo_bgCarrier" stroke-width="0"></g><g id="SVGRepo_tracerCarrier" stroke-linecap="round" stroke-linejoin="round"></g><g id="SVGRepo_iconCarrier"> <g> <g> <path style="fill:#2C2F33;" d="M244.8,489.6c135,0,244.8-109.8,244.8-244.8S379.8,0,244.8,0S0,109.8,0,244.8 S109.8,489.6,244.8,489.6z M244.8,19.8c124.1,0,225,100.9,225,225s-100.9,225-225,225s-225-100.9-225-225S120.7,19.8,244.8,19.8z"></path> <path style="fill:#3C92CA;" d="M265.5,326.1c1.9,1.9,4.5,2.9,7,2.9s5.1-1,7-2.9c3.9-3.9,3.9-10.1,0-14l-67.3-67.3l67.3-67.3 c3.9-3.9,3.9-10.1,0-14s-10.1-3.9-14,0l-74.3,74.3c-3.9,3.9-3.9,10.1,0,14L265.5,326.1z"></path> </g> </g> </g></svg>